<svg viewBox="24.445945945945937 27.25 359.89864864864865 490.5000000000001" fill="none" xmlns="http://www.w3.org/2000/svg" xmlns:xlink="http://www.w3.org/1999/xlink" overflow="visible" width="359.89864864864865px" height="490.5000000000001px"><g id="Master/Composition/Graphs"><g id="Chart"><path id="Value" fill-rule="evenodd" clip-rule="evenodd" d="M88.6606 88.7131C86.1848 91.3311 82.6774 92.975 78.7765 92.975C71.281 92.975 65.2047 86.942 65.2047 79.5C65.2047 72.058 71.281 66.025 78.7765 66.025V41C57.4533 41 40 58.3288 40 79.5C40 100.671 57.4533 118 78.7765 118C89.9771 118 100.1 113.295 107 105.811L88.6606 88.7131Z" fill="#e5f4ff"/><path id="Value_2" fill-rule="evenodd" clip-rule="evenodd" d="M78 41V66.35C85.5387 66.35 91.65 72.4613 91.65 80H117C117 58.5539 99.4461 41 78 41Z" fill="#45a8ea"/><path id="Value_3" fill-rule="evenodd" clip-rule="evenodd" d="M91.2919 79C91.2919 83.4007 89.2194 87.3124 86 89.8381L101.838 110C111.057 102.782 117 91.5928 117 79H91.2919Z" fill="#96d5ff"/></g><g id="Circles"><circle id="Oval 2 Copy 17" cx="359" cy="132" r="20" fill="#afdfff"/><circle id="Oval 2 Copy 6" cx="88.5" cy="346.5" r="13.5" fill="#6ac4ff"/><circle id="Oval 2 Copy 14" cx="164.5" cy="131.5" r="13.5" fill="#3b8fc7"/><circle id="Oval 2 Copy 10" cx="137.5" cy="326.5" r="13.5" fill="#3b8fc7"/><circle id="Oval 2 Copy 11" cx="186.5" cy="230.5" r="18.5" fill="#afdfff"/><circle id="Oval 2 Copy 16" cx="325" cy="148" r="27" fill="#6ac4ff"/><circle id="Oval 2 Copy 7" cx="61.5" cy="299.5" r="13.5" fill="#afdfff"/><circle id="Oval 2 Copy 7_2" cx="33.5" cy="359.5" r="9.5" fill="#afdfff"/><circle id="Oval 2 Copy 9" cx="138" cy="275" r="10" fill="#afdfff"/><circle id="Oval 2 Copy 12" cx="228" cy="246" r="17" fill="#afdfff"/><circle id="Oval 2 Copy 13" cx="235" cy="175" r="17" fill="#afdfff"/><circle id="Oval 2 Copy 8" cx="102" cy="248" r="17" fill="#6ac4ff"/><circle id="Oval 2 Copy 15" cx="286" cy="203" r="20" fill="#6ac4ff"/></g><g id="Head/Front" transform="translate(101.859 127.148) scale(1.1015625 1.1043955729557917)"><g id="Head/Front/Short 2"><g id="Head"><path id="SKIN" fill-rule="evenodd" clip-rule="evenodd" d="M73.9354 75.2443C80.411 79.1475 86.7736 81.0333 89.7603 80.2635C97.2496 78.333 97.9382 50.9351 92.1433 40.1339C86.3485 29.3328 56.5583 24.625 55.0568 46.0255C54.5356 53.4529 57.6544 60.0814 62.2623 65.4901L54 104H78L73.9354 75.2443Z" fill="#62c0ff"/></g><path id="Hair" fill-rule="evenodd" clip-rule="evenodd" d="M60.4181 70.3075C57.4059 56.9065 48.8245 47.7714 50.1351 41.7817C51.4457 35.792 57.1213 34.3321 57.1213 34.3321C57.1213 34.3321 60.0567 22.4572 76.0556 24.2304C92.0546 26.0036 101.819 32.6478 97.6025 47.2679C93.7261 47.2679 89.0465 45.866 82.5755 48.2679C79.4957 49.411 78.17 55.358 78.17 55.358H75.2458C75.2458 55.358 70.9887 48.3006 66.8508 50.1712C62.7128 52.0418 64.9695 59.2586 64.9695 59.2586L63.5291 70.3075H60.4181Z" fill="#1b1850"/></g></g><g id="Lower Body/Sitting" transform="translate(11.5312 333.67) scale(1.1015625 1.1043956549097804)"><g id="Lower Body/Sitting/Skinny Jeans 1"><g id="Seat"><g id="Seat_2"><path id="Seat Stuff" fill-rule="evenodd" clip-rule="evenodd" d="M92.6226 42H169.877L180 166H65L92.6226 42Z" fill="#96d5ff"/><path id="Seat Stuff_2" fill-rule="evenodd" clip-rule="evenodd" d="M92.6226 42H116.383L130.604 166H65L92.6226 42Z" fill="#000000" fill-opacity="0.1"/></g></g><path id="LegBack" fill-rule="evenodd" clip-rule="evenodd" d="M212.323 66.5665C203.642 84.9781 190.077 129.672 190.077 129.672L201.593 134.934C201.593 134.934 230.814 87.9524 248.672 55.8364C247.84 63.0664 246.993 71.2061 246.208 79.7626C244.347 100.033 246.207 143.827 247.208 156.477C247.837 164.428 258.64 162.762 259.648 156.457C259.819 155.389 260.515 151.639 261.554 146.045C266.647 118.613 279.977 46.8178 280 29.2384C280.01 22.1647 266.19 15.8101 257.953 20.7561C252.296 14.7192 241.588 11.2397 235.436 21.212C231.525 27.5517 222.233 45.5497 212.323 66.5665Z" fill="#62c0ff"/><path id="LegLower" fill-rule="evenodd" clip-rule="evenodd" d="M190.9 113.125L230.427 19.4873C239.897 4.25483 266.446 22.587 263.217 31.4217C255.885 51.4793 218.6 116.414 216.415 122.39L190.9 113.125Z" fill="#342e99"/><path id="shoe" fill-rule="evenodd" clip-rule="evenodd" d="M191.664 124.185C190.971 123.241 189.63 123.017 188.734 123.771C187.099 125.146 184.748 127.264 183.899 128.734C182.547 131.076 180.733 136.021 180.733 136.021C183.45 137.59 229.578 164.222 229.578 164.222C229.578 164.222 235.116 159.027 231.304 156.157C227.491 153.286 225.012 151.315 225.012 151.315L208.152 128.087C207.821 127.631 207.179 127.538 206.733 127.882L203.23 130.579C203.23 130.579 198.409 130.159 196.035 128.788C194.589 127.953 192.824 125.767 191.664 124.185Z" fill="#c7e9ff"/><path id="shoe_2" fill-rule="evenodd" clip-rule="evenodd" d="M247.45 150.284C246.378 149.813 245.104 150.29 244.705 151.391C243.977 153.398 243 156.409 243 158.106C243 160.811 243.901 166 243.901 166C247.039 166 300.303 166 300.303 166C300.303 166 302.502 158.732 297.765 158.152C293.028 157.573 289.895 157.106 289.895 157.106L263.68 145.419C263.165 145.189 262.563 145.43 262.348 145.951L260.663 150.039C260.663 150.039 256.278 152.085 253.537 152.085C251.868 152.085 249.246 151.074 247.45 150.284Z" fill="#c7e9ff"/><path id="Leg and Butt" fill-rule="evenodd" clip-rule="evenodd" d="M282.77 36.433C282.77 63 270.154 124.97 270.146 130.82L243 130.841C243 130.841 248.96 47.8977 247.227 47.0042C245.493 46.1107 176.176 53.925 155.386 53.925C125.408 53.925 113.006 35.0204 112 0H171.386C183.478 1.29387 246.549 14.0153 269.972 18.3884C280 20.2606 282.77 29.1145 282.77 36.433Z" fill="#5147e4"/></g></g><g id="Upper Body" transform="translate(35.7656 217.709) scale(1.1015625 1.1043955757018717)"><g id="Upper Body/Pointing Up"><path id="SKIN" fill-rule="evenodd" clip-rule="evenodd" d="M229.36 -9.03758L191.456 2.34084L201.134 18.4626L230.605 1.11849C244.362 0.299262 250.862 -1.05756 250.105 -2.95197C249.466 -4.54928 247.947 -4.82144 246.548 -5.07212C245.458 -5.2674 244.441 -5.44965 243.969 -6.23517C242.892 -8.02905 246.667 -12.6987 250.438 -16.977C254.21 -21.2552 251.192 -21.4545 249.369 -21.1114C243.101 -18.5666 236.431 -14.542 229.36 -9.03758ZM220.005 92.5917L188.107 69.1681L181.055 86.5991L212.643 99.6977C221.577 110.192 226.572 114.566 227.629 112.822C228.521 111.351 227.824 109.974 227.182 108.705C226.682 107.717 226.215 106.795 226.559 105.946C227.344 104.006 233.345 104.21 239.031 104.648C244.717 105.085 243.06 102.555 241.689 101.305C235.885 97.8307 228.657 94.9262 220.005 92.5917Z" fill="#62c0ff"/><path id="Coat Back" fill-rule="evenodd" clip-rule="evenodd" d="M138.561 6.08676C155.931 38.4763 181.05 63.3052 217.466 89.1158L203.677 104.663C163.018 89.5528 141.559 80.4362 131.021 49.8347C128.376 42.1544 126.528 17.6708 124.942 4.7888L138.561 6.08676Z" fill="#2b257c"/><path id="Shirt" fill-rule="evenodd" clip-rule="evenodd" d="M90 114H167C167 114 140.837 34.2081 140.27 4.47156C140.251 3.4609 138.384 1.67996 137.559 1.91319C128.5 4.47156 118.172 0 118.172 0C99.9175 29.3584 93.6048 65.5046 90 114Z" fill="#e5f4ff"/><path id="Coat Front" fill-rule="evenodd" clip-rule="evenodd" d="M137.486 44.7908C149.512 96.3771 148.958 138.606 122.407 138.606H81.3511C74.8304 94.784 91.9681 34.0236 107.856 3.37659C108.463 2.20628 109.754 0 112.797 0H124.727C124.732 0.0157986 124.737 0.0315971 124.743 0.0473957C128.332 0.0767918 132.286 0.208035 136.567 0.350165C158.608 1.08188 189.341 2.10213 223.923 -9L228 11.3735C196.787 31.4482 165.181 46.9991 137.486 44.7908Z" fill="#4e44e4"/></g></g><g id="Bars"><rect id="Rectangle" x="260" y="33" width="110" height="16" rx="4" fill="#5147e4"/><rect id="Rectangle" x="260" y="57" width="70" height="16" rx="4" fill="#afdfff"/><rect id="Rectangle_2" x="260" y="81" width="86" height="16" rx="4" fill="#afdfff"/></g><g id="Graph"><rect id="Value_4" x="24" y="458" width="6" height="25" rx="3" fill="#45a8ea"/><rect id="Value_5" x="38" y="442" width="6" height="41" rx="3" fill="#45a8ea"/><rect id="Value_6" x="52" y="434" width="6" height="49" rx="3" fill="#45a8ea"/><rect id="Value_7" x="66" y="442" width="6" height="41" rx="3" fill="#45a8ea"/><rect id="Value" x="80" y="426" width="6" height="57" rx="3" fill="#5147e4"/></g><g id="Pie Chart"><path id="Value_8" fill-rule="evenodd" clip-rule="evenodd" d="M324 465.516C324 449.285 337.053 436 353 436V465.516L333.181 487C327.544 481.748 324 474.042 324 465.516Z" fill="#e5f4ff"/><path id="Value_9" fill-rule="evenodd" clip-rule="evenodd" d="M351.892 465H381C381 472.57 377.931 479.664 373.078 484.819C367.741 490.456 360.141 494 351.892 494C344.294 494 337.338 490.942 332 486.108L351.892 465Z" fill="#63c1ff"/><path id="Value_10" fill-rule="evenodd" clip-rule="evenodd" d="M382 465C382 449.053 368.947 436 353 436V465H382ZM338.5 436L350.1 462.1L324 450.5C326.581 443.734 332.377 438.581 338.5 436Z" fill="#6593ff"/></g><g id="Circles_2"><circle id="Circle" cx="136.5" cy="350.5" r="14.5" fill="#6ac4ff"/><circle id="Circle_2" cx="179" cy="267" r="7" fill="#afdfff"/><circle id="Circle_3" cx="267" cy="261" r="15" fill="#6ac4ff"/></g></g></svg>